<?xml version="1.0" encoding="utf-8"?>
<!-- Generator: Adobe Illustrator 24.3.0, SVG Export Plug-In . SVG Version: 6.00 Build 0)  -->
<svg version="1.1" id="Capa_1" xmlns="http://www.w3.org/2000/svg" xmlns:xlink="http://www.w3.org/1999/xlink" x="0px" y="0px"
	 viewBox="0 0 150 150" style="enable-background:new 0 0 150 150;" xml:space="preserve">
<style type="text/css">
	.st0{enable-background:new    ;}
	.st1{fill:#4488FF;}
</style>
<g>
	<g>
		<g id="XMLID_1045_" class="st0">
			<path class="st1" d="M1.6,14.4c0.1-0.2,0.5-0.4,1.4-0.5c0.8-0.1,2.4-0.1,4.8-0.1h6v2.3v2.3h-1.6h-1.6l0.2,8.5l0.2,8.5H8H5.1v-7.5
				c0-2.1,0-3.9-0.1-5.6s-0.1-2.6-0.2-2.9c-0.1-0.3-0.3-0.6-0.5-0.7c-0.2-0.1-0.7-0.2-1.3-0.3C2.4,18.3,2,18.2,1.8,18
				c-0.2-0.2-0.3-0.6-0.3-1.4C1.4,15.5,1.4,14.8,1.6,14.4z"/>
			<path class="st1" d="M14.8,25.4V14.3h3.1H21v4.1c0,2.2,0.1,3.4,0.2,3.7c0.1,0.3,0.3,0.4,0.6,0.4c0.3,0,0.5-0.1,0.6-0.3
				c0.1-0.3,0.2-1.4,0.2-3.4c0-0.1,0-0.1,0-0.2v-3.9h3.3h3.3l-0.1,11l-0.1,11l-2.8,0.1c-1.9,0.1-2.9-0.1-3.2-0.4
				c-0.1-0.1-0.2-0.7-0.2-1.6c-0.1-0.9-0.1-2-0.1-3.1c0-2.2-0.1-3.5-0.2-3.8c-0.1-0.3-0.4-0.4-0.6-0.4c-0.3,0-0.5,0.1-0.6,0.3
				C21,28.1,21,29.3,21,31.3c0,0.3,0,0.6,0,0.9v4.8l-1.5-0.3c-1-0.2-2.1-0.3-3.1-0.3h-1.6V25.4z"/>
			<path class="st1" d="M34.6,14.3c2.5-0.2,4-0.2,4.5-0.2c0.6,0,0.9,0.2,1.1,0.6c0.1,0.2,0.1,0.7,0.2,1.6l0.1,2.1l-1.9,0.3l-1.9,0.3
				v1.8v1.8h1.8c0.5,0,0.9,0,1.2,0.1s0.5,0.2,0.7,0.4c0.2,0.2,0.3,0.5,0.4,0.9c0.1,0.4,0.1,0.9,0.1,1.5c0,0.5-0.1,0.8-0.3,0.9
				s-0.7,0.3-1.5,0.4l-1.9,0.3v1.7c0,0.4,0,0.8,0,1.1c0,0.3,0.1,0.5,0.1,0.8c0.1,0.2,0.2,0.4,0.3,0.5s0.3,0.2,0.5,0.2
				s0.4,0.1,0.7,0.1c0.3,0,0.6,0,0.9-0.1c0.4,0,0.7-0.1,0.9-0.1s0.4,0,0.6,0c0.2,0,0.3,0,0.4,0.1c0.1,0.1,0.1,0.2,0.2,0.3
				s0.1,0.2,0.2,0.4c0.2,0.7,0.3,1.4,0.3,2.3c0,0.3,0,0.4,0,0.6c0,0.1,0,0.2-0.1,0.4c-0.1,0.1-0.1,0.2-0.2,0.3
				c-0.1,0-0.2,0.1-0.4,0.1c-0.2,0.1-0.4,0.1-0.6,0.1c-0.2,0-0.5,0.1-0.9,0.1c-2.1,0.2-4,0.4-5.7,0.4c-1.7,0-2.5,0-2.6-0.2
				c-0.2-0.3-0.5-3.9-0.9-10.8c-0.4-6.9-0.5-10.4-0.4-10.6c0.1-0.1,0.5-0.2,1.4-0.3S33.5,14.3,34.6,14.3z"/>
		</g>
		<g id="XMLID_1044_" class="st0">
			<path class="st1" d="M100.3,111.2c1-0.4,2.5-0.7,4.4-0.7c1.9,0,3.3,0.2,4.1,0.6c1,0.5,1.8,1.1,2.3,1.6c0.5,0.6,0.9,1.3,1.1,2.1
				c0.2,0.8,0.4,2,0.5,3.4l0.2,3.9h-3.5h-3.5v-1.8c0-1.5-0.1-2.8-0.4-3.9c-0.2-1.1-0.5-1.6-0.9-1.6c-0.2,0-0.4,0.1-0.5,0.2
				c-0.2,0.1-0.3,0.3-0.4,0.6c-0.2,0.6-0.3,3.5-0.3,8.6c0.1,5.1,0.2,7.8,0.5,8.2c0.4,0.6,0.8,0.6,1.2-0.1c0.3-0.6,0.6-1.7,0.7-3.1
				l0.2-2.7h3.4h3.4v2.5c0,5.1-2.5,7.8-7.5,8.1c-1.2,0.1-2.2,0-2.9-0.1s-1.4-0.4-2.2-0.8c-0.4-0.2-0.8-0.4-1.1-0.6
				c-0.3-0.2-0.5-0.4-0.8-0.7s-0.5-0.6-0.6-0.8c-0.2-0.3-0.3-0.7-0.4-1.2c-0.1-0.5-0.2-1-0.3-1.5s-0.1-1.2-0.2-2.1
				c0-0.9-0.1-1.7-0.1-2.6c0-0.9,0-2,0-3.4c0-1.3,0-2.3,0-3.2c0-0.9,0-1.7,0.1-2.5c0.1-0.8,0.1-1.5,0.2-2c0.1-0.5,0.2-1,0.3-1.5
				c0.1-0.5,0.3-0.9,0.4-1.1c0.2-0.3,0.4-0.6,0.6-0.8c0.3-0.3,0.5-0.5,0.8-0.7C99.6,111.5,99.9,111.4,100.3,111.2z"/>
			<path class="st1" d="M117.6,112.9c0.3-0.1,1-0.2,2-0.3s2-0.1,3-0.1l3.7,0l2.6,12.5c0.7,3.4,1.3,6.4,1.7,8.9
				c0.5,2.5,0.6,3.8,0.6,3.8c-0.2,0.2-1.3,0.3-3.4,0.5c-0.6,0-1,0.1-1.3,0.1s-0.6,0-0.9,0c-0.3,0-0.5,0-0.6-0.1s-0.2-0.1-0.3-0.2
				c-0.1-0.1-0.2-0.2-0.2-0.3c0-0.1-0.1-0.3-0.1-0.5c-0.2-0.8-0.3-1.5-0.3-2.2c0-0.4-0.1-0.7-0.3-0.9c-0.2-0.2-0.5-0.2-1-0.2
				c-0.3,0-0.5,0-0.7,0.1c-0.1,0-0.3,0.1-0.4,0.3c-0.1,0.2-0.1,0.4-0.2,0.6s0,0.6,0,1.2c0,0.4,0,0.8,0,1.1s-0.1,0.5-0.2,0.7
				s-0.3,0.4-0.4,0.5c-0.2,0.1-0.4,0.2-0.8,0.3c-0.4,0.1-0.8,0.1-1.2,0.1c-0.4,0-1,0-1.7,0h-2.8l0.3-3.3c0.9-11.3,1.5-17.9,1.7-19.7
				c0.2-1.5,0.5-2.4,0.8-2.7C117.2,113,117.4,112.9,117.6,112.9z M122.8,125.4c-0.2-1-0.3-1.9-0.5-2.7c-0.2-0.8-0.3-1.2-0.4-1.3
				c-0.1-0.1-0.2,0.1-0.2,0.4c-0.1,0.7-0.2,1.7-0.2,3.2c0,0.6,0,1.1,0,1.5s0,0.7,0,1.1s0,0.6,0.1,0.7c0,0.2,0.1,0.3,0.2,0.4
				c0.1,0.1,0.2,0.2,0.2,0.2c0.1,0,0.2,0,0.3,0c0.3,0,0.5-0.1,0.6-0.3C123.1,128.4,123,127.3,122.8,125.4z"/>
			<path class="st1" d="M141.5,112.4c0-1,0.1-1.5,0.1-1.6c0.1-0.1,0.4-0.2,1-0.2c0.6-0.1,1.2-0.1,1.9-0.1h2.6l0.2,2.1
				c0.2,2,0.5,6.3,0.8,12.9c0.3,6.7,0.4,10.1,0.2,10.4c-0.1,0.1-0.4,0.3-1,0.3c-0.6,0.1-1.3,0.1-2.1,0.1h-2.8l-1.8-4.8l-1.8-4.8
				l0.3,5l0.3,5h-3h-2.9l-0.3-3.1c-0.3-3.7-0.6-8.4-0.8-13.9c-0.2-5.5-0.2-8.4,0-8.6c0.1-0.1,0.5-0.2,1-0.2c0.6,0,1.2-0.1,2,0
				l2.6,0.1l1.9,4.6l1.9,4.6l-0.3-4.7C141.5,114.5,141.5,113.4,141.5,112.4z"/>
		</g>
		<g id="XMLID_743_">
			<path class="st1" d="M4,48.2l0.8-8.5l14.9,0.6c3.5,0.2,6.5,0.3,8.9,0.6c2.4,0.2,4.6,0.6,6.6,1.1s3.6,1.1,4.8,1.8
				c1.2,0.7,2.3,1.6,3.2,2.8s1.7,2.5,2.2,3.9s1,3.2,1.4,5.3c0.3,2.2,0.3,4.4,0,6.6s-0.9,4.2-1.9,6c-0.9,1.8-1.9,2.9-3.1,3.3
				c-1.3,0.4-1.9,0.7-2,1.1c0,0.4,0.8,1.5,2.5,3.2c0.1,0.2,0.3,0.3,0.5,0.6c1.3,1.3,2.2,2.4,2.6,3.4c0.5,1,0.8,2.2,0.9,3.7
				s0.2,4.1,0.2,7.8c0,6.1-0.5,10.5-1.5,13.1s-2.7,4.4-5.2,5.4c-1.9,0.8-6.5,1.2-13.9,1.3c-7.4,0.1-13.4-0.2-18-0.9l-6.5-0.9L2.3,83
				C2.9,65.5,3.4,53.9,4,48.2z M27,88.6c0-1.9,0.1-3.4,0.1-4.5s0-1.9-0.2-2.5s-0.5-0.9-0.8-1.1c-0.3-0.2-0.8-0.2-1.5-0.2
				c-0.5,0-0.9,0.1-1.2,0.2s-0.6,0.3-0.8,0.6c-0.2,0.3-0.4,0.8-0.5,1.5c-0.1,0.7-0.2,1.6-0.2,2.5s-0.1,2.3-0.1,4c0,1,0,1.9,0,2.6
				s0,1.4,0.1,2c0,0.6,0.1,1.1,0.1,1.5c0.1,0.4,0.1,0.7,0.2,1.1c0.1,0.4,0.2,0.6,0.3,0.7c0.1,0.1,0.2,0.2,0.4,0.4s0.3,0.2,0.5,0.1
				c0.2-0.1,0.4-0.1,0.7,0c0.9-0.2,1.6-0.9,2-2C26.5,94.2,26.8,92,27,88.6z M28.3,59.1c-0.1-1.8-0.4-3.2-0.9-4s-1.1-1.3-1.9-1.5
				c-1-0.2-1.7,0.2-1.9,1c-0.3,0.9-0.4,2.9-0.4,6c0,2.1,0.1,3.9,0.4,5.3c0.2,1.4,0.5,2.2,0.9,2.2c1.2,0,2.2-0.9,3-2.7
				C28.3,63.6,28.5,61.5,28.3,59.1z"/>
		</g>
		<g id="XMLID_731_">
			<path class="st1" d="M97.1,39.2c0-0.5,0.1-0.8,0.4-1.1c0.2-0.2,0.7-0.4,1.4-0.6s1.7-0.2,3-0.2c1.3,0,2.9,0.1,4.9,0.1l9.7,0.4
				l2.2,8.1c1,3.8,1.6,5.8,1.9,6c0.3,0.3,0.6,0.1,0.9-0.8c0.3-0.8,1-3.8,2.3-9.2c0.2-0.8,0.3-1.3,0.4-1.7s0.3-0.7,0.7-1.1
				c0.3-0.4,0.7-0.7,0.9-0.8s0.8-0.3,1.7-0.4c0.9-0.2,1.7-0.2,2.5-0.3c0.8,0,2.1-0.1,3.8-0.2c4.8-0.2,7.5-0.1,8.1,0.3
				c0.4,0.3,0.5,0.8,0.2,1.7c-0.5,1.6-1.7,6.8-3.7,15.5l-2.9,13l5.5,18.8c3.7,12.5,5.5,19,5.5,19.6c0,0.2-0.9,0.4-2.8,0.5
				c-1.9,0.1-4.2,0.1-6.9,0l-9.7-0.4l-2.8-9.9c-1.5-5.4-2.6-8.2-3.2-8.2s-1.2,2.1-1.8,6.5c-0.1,0.3-0.1,0.6-0.2,0.9
				c0,0.2,0,0.4-0.1,0.7c-0.2,1.3-0.3,2.3-0.4,2.9c-0.1,0.6-0.2,1.4-0.4,2.3c-0.2,0.9-0.3,1.5-0.4,1.9c-0.1,0.3-0.2,0.8-0.6,1.3
				s-0.6,0.9-0.7,1c-0.1,0.1-0.5,0.3-1,0.6c-0.6,0.3-1,0.4-1.3,0.4s-0.9,0.1-1.8,0.1s-1.6,0.1-2.1,0.1c-0.5,0-1.4,0-2.7,0
				c-0.3,0-0.6,0-0.7,0c-2.8,0-5.1-0.1-7.1-0.2s-2.9-0.4-2.9-0.6c0-0.5,1.1-7,3.4-19.3l3.4-18.5l-3.4-13.5
				C98.2,45.9,97.1,40.7,97.1,39.2z"/>
		</g>
		<g>
			<path class="st1" d="M93.3,48.9c-0.3-2.9-1-5.3-2.2-7.2c-2.3-3.8-6.1-6.5-11.4-8.1s-10.5-1.7-15.9-0.2c-1.3,0.4-2.9,1.1-4.6,2.1
				c-1.7,1-3.1,2.1-4.1,3.3c-0.5,0.5-0.8,0.8-1.1,1.1c-1.2,1.4-2,3-2.3,4.9c-0.4,2.1-0.8,8.5-1.2,19.1c-0.2,5.8-0.3,11.2-0.3,16.4
				c0,5.2,0.2,8.4,0.5,9.8c0.6,3.2,2,6,4.3,8.4c2.3,2.4,5,4.2,8.2,5.3c3.1,1.1,6.6,1.6,10.5,1.3c3.8-0.2,7.5-1.2,10.9-3
				c1.5-0.8,2.7-1.7,3.7-2.7c1-1.1,1.8-2.4,2.5-4s1.3-3.7,1.6-6.3c0.4-2.6,0.7-5.6,0.8-9s0.2-7.6,0.2-12.6
				C93.7,58,93.6,51.8,93.3,48.9z M77.9,59.6l-1.3,18.6c0,0,6.8,2.9,4.2,9.1c-1.5,3.5-7.2,5.9-10.3,2c0,0-7,3-9.4-2.3
				c-2.4-5.4,1.9-9.3,4.8-9.7l2.3-18.4c0,0-5.6-2.6-4.5-7.9c0.8-4,6.4-6.7,10.6-3.5c0,0,7.8-3.2,9.3,4.6
				C84,54.3,83.6,58.6,77.9,59.6z"/>
		</g>
	</g>
</g>
</svg>
