<?xml version="1.0" encoding="utf-8"?>
<!-- Generator: Adobe Illustrator 24.3.0, SVG Export Plug-In . SVG Version: 6.00 Build 0)  -->
<svg version="1.1" id="Capa_1" xmlns="http://www.w3.org/2000/svg" xmlns:xlink="http://www.w3.org/1999/xlink" x="0px" y="0px"
	 viewBox="0 0 150 150" style="enable-background:new 0 0 150 150;" xml:space="preserve">
<style type="text/css">
	.st0{clip-path:url(#XMLID_103_);}
	.st1{fill:#F9F9F9;}
	.st2{clip-path:url(#XMLID_112_);}
	.st3{fill:#4488FF;}
	.st4{fill:#FFFFFF;}
	.st5{font-family:'IMPACTED';}
	.st6{font-size:35.3296px;}
	.st7{font-size:41.8755px;}
	.st8{fill:#373735;}
	.st9{fill:none;stroke:#FFFFFF;stroke-width:3.232;stroke-linecap:round;stroke-miterlimit:10;}
	.st10{fill:#FFFFFF;stroke:#FFFFFF;stroke-width:0.4686;stroke-miterlimit:10;}
	.st11{fill:#A4C9FF;}
	.st12{fill:none;stroke:#FFFFFF;stroke-width:1.0953;stroke-miterlimit:10;}
	.st13{fill:#1DFF88;}
	.st14{fill:#E30613;}
	.st15{fill:#E10613;}
	.st16{fill:#9D9D9C;}
	.st17{fill:none;stroke:#4488FF;stroke-width:0.7152;stroke-miterlimit:10;}
	.st18{fill:none;stroke:#4488FF;stroke-width:0.3576;stroke-miterlimit:10;}
	.st19{fill:none;stroke:#4488FF;stroke-width:0.5;stroke-miterlimit:10;}
	.st20{fill:#4488FF;stroke:#4488FF;stroke-width:1.269;stroke-miterlimit:10;}
	.st21{fill:#FFFFFF;stroke:#4488FF;stroke-width:1.2389;stroke-miterlimit:10;}
	.st22{fill:#B0B0B0;}
	.st23{clip-path:url(#SVGID_2_);}
	.st24{fill:#070707;}
	.st25{opacity:0.75;}
	.st26{fill:none;stroke:#E10613;stroke-width:0.5761;stroke-miterlimit:10;}
	.st27{fill:none;stroke:#706F6F;stroke-width:0.7139;stroke-miterlimit:10;}
	.st28{fill:#EDEDED;}
	.st29{fill:none;stroke:#CCCCCC;stroke-miterlimit:10;}
	.st30{clip-path:url(#XMLID_175_);}
	.st31{fill:none;stroke:#4488FF;stroke-width:0.75;stroke-miterlimit:10;}
	.st32{fill:#C6C6C6;}
	.st33{clip-path:url(#XMLID_181_);}
	.st34{clip-path:url(#XMLID_187_);}
	.st35{opacity:0.46;}
	.st36{fill:none;stroke:#4488FF;stroke-width:0.3658;stroke-miterlimit:10;}
	.st37{fill:#3B9044;}
	.st38{fill:#7BDE45;}
	.st39{clip-path:url(#SVGID_4_);}
	.st40{fill:none;stroke:#E10613;stroke-width:0.5;stroke-miterlimit:10;}
	.st41{fill:none;}
	.st42{clip-path:url(#SVGID_6_);}
	.st43{clip-path:url(#SVGID_8_);}
	.st44{clip-path:url(#SVGID_10_);}
	.st45{clip-path:url(#SVGID_12_);}
	.st46{clip-path:url(#SVGID_14_);}
	.st47{fill:none;stroke:#4488FF;stroke-width:0.3172;stroke-miterlimit:10;}
	.st48{fill:none;stroke:#4488FF;stroke-width:0.6345;stroke-miterlimit:10;}
	.st49{fill:none;stroke:#4488FF;stroke-width:0.3125;stroke-miterlimit:10;}
</style>
<g>
	<g>
		<text id="XMLID_1045_" transform="matrix(1 0 0 1 0.912 36.3672)" class="st3 st5 st6">THE</text>
		<text id="XMLID_1044_" transform="matrix(1 0 0 1 96.1713 136.6621)" class="st3 st5 st7">CAN</text>
		<path id="XMLID_743_" class="st3" d="M3.97,48.17l0.84-8.55l14.9,0.56c3.52,0.15,6.49,0.34,8.89,0.56c2.4,0.23,4.59,0.59,6.58,1.1
			c1.99,0.51,3.58,1.1,4.78,1.77c1.2,0.67,2.27,1.6,3.21,2.78c0.94,1.18,1.67,2.48,2.19,3.91c0.52,1.43,0.99,3.21,1.41,5.34
			c0.34,2.17,0.35,4.38,0.03,6.61c-0.32,2.23-0.94,4.25-1.86,6.05c-0.92,1.8-1.94,2.89-3.07,3.26c-1.27,0.38-1.93,0.73-1.97,1.07
			c-0.04,0.41,0.79,1.48,2.47,3.21c0.11,0.15,0.28,0.34,0.51,0.56c1.31,1.31,2.19,2.45,2.64,3.4c0.45,0.96,0.75,2.19,0.9,3.71
			c0.15,1.52,0.21,4.13,0.17,7.85c-0.04,6.11-0.54,10.49-1.52,13.13c-0.98,2.64-2.72,4.43-5.23,5.37
			c-1.91,0.75-6.54,1.17-13.89,1.27c-7.35,0.09-13.37-0.2-18.05-0.87l-6.47-0.9l0.9-26.32C2.9,65.49,3.44,53.87,3.97,48.17z
			 M26.97,88.61c0.04-1.91,0.08-3.42,0.14-4.53c0.06-1.11-0.02-1.95-0.23-2.53c-0.21-0.58-0.47-0.95-0.79-1.1
			c-0.32-0.15-0.82-0.23-1.49-0.23c-0.53,0-0.94,0.06-1.24,0.17c-0.3,0.11-0.56,0.31-0.79,0.59c-0.23,0.28-0.38,0.79-0.48,1.52
			c-0.09,0.73-0.16,1.57-0.2,2.53c-0.04,0.96-0.06,2.28-0.06,3.97c0,1.01,0.01,1.88,0.03,2.59c0.02,0.71,0.04,1.39,0.06,2.02
			c0.02,0.64,0.06,1.14,0.11,1.52c0.06,0.38,0.13,0.74,0.23,1.1c0.09,0.36,0.2,0.59,0.31,0.7c0.11,0.11,0.24,0.24,0.39,0.39
			c0.15,0.15,0.33,0.2,0.53,0.14c0.21-0.06,0.44-0.06,0.7-0.03c0.94-0.19,1.59-0.86,1.97-2.02C26.55,94.25,26.82,91.98,26.97,88.61z
			 M28.32,59.14c-0.15-1.84-0.44-3.18-0.87-4.02c-0.43-0.84-1.06-1.34-1.88-1.49c-1.01-0.19-1.66,0.15-1.94,1.01
			c-0.28,0.86-0.42,2.87-0.42,6.02c0,2.1,0.12,3.87,0.37,5.31c0.24,1.44,0.53,2.17,0.87,2.17c1.24,0,2.25-0.9,3.04-2.7
			C28.26,63.64,28.54,61.54,28.32,59.14z"/>
		<path id="XMLID_731_" class="st3" d="M97.1,39.23c0-0.49,0.12-0.85,0.37-1.1c0.24-0.24,0.72-0.44,1.43-0.59
			c0.71-0.15,1.71-0.22,2.98-0.2c1.27,0.02,2.92,0.07,4.95,0.14l9.73,0.39l2.25,8.1c1.01,3.75,1.63,5.76,1.86,6.02
			c0.3,0.34,0.6,0.06,0.9-0.84c0.26-0.75,1.03-3.82,2.31-9.22c0.15-0.75,0.28-1.3,0.39-1.66c0.11-0.36,0.34-0.73,0.68-1.12
			c0.34-0.39,0.65-0.66,0.93-0.79c0.28-0.13,0.85-0.27,1.72-0.42c0.86-0.15,1.71-0.24,2.53-0.28c0.82-0.04,2.1-0.09,3.82-0.17
			c4.8-0.22,7.52-0.11,8.15,0.34c0.41,0.26,0.49,0.83,0.23,1.69c-0.49,1.61-1.71,6.77-3.66,15.47l-2.87,12.99l5.51,18.78
			c3.67,12.48,5.51,19.03,5.51,19.63c0,0.22-0.95,0.38-2.84,0.48c-1.89,0.09-4.19,0.08-6.89-0.03l-9.73-0.39l-2.81-9.95
			c-1.54-5.44-2.61-8.17-3.21-8.21c-0.6-0.04-1.2,2.14-1.8,6.52c-0.08,0.26-0.13,0.56-0.17,0.9c0,0.15-0.04,0.39-0.11,0.73
			c-0.19,1.35-0.32,2.33-0.39,2.92c-0.08,0.6-0.22,1.36-0.42,2.28c-0.21,0.92-0.34,1.54-0.39,1.86c-0.06,0.32-0.25,0.75-0.59,1.29
			c-0.34,0.54-0.57,0.88-0.7,1.01c-0.13,0.13-0.48,0.34-1.04,0.62c-0.56,0.28-0.99,0.42-1.29,0.42c-0.3,0-0.89,0.05-1.77,0.14
			c-0.88,0.09-1.59,0.14-2.14,0.14c-0.54,0-1.45,0-2.73,0c-0.34,0-0.58,0-0.73,0c-2.78,0-5.13-0.08-7.06-0.25
			c-1.93-0.17-2.9-0.37-2.9-0.59c0-0.52,1.14-6.97,3.43-19.35l3.43-18.5l-3.43-13.55C98.24,45.87,97.1,40.66,97.1,39.23z"/>
		<path class="st3" d="M93.3,48.88c-0.28-2.91-1-5.31-2.17-7.23c-2.33-3.79-6.11-6.49-11.36-8.1c-5.25-1.61-10.54-1.69-15.86-0.22
			c-1.35,0.38-2.87,1.09-4.56,2.14c-1.69,1.05-3.06,2.14-4.11,3.26c-0.49,0.49-0.84,0.84-1.07,1.07c-1.2,1.39-1.97,3.02-2.31,4.89
			c-0.41,2.1-0.81,8.47-1.18,19.12c-0.23,5.77-0.32,11.24-0.28,16.39c0.04,5.16,0.19,8.43,0.45,9.81c0.56,3.22,1.99,6.04,4.27,8.44
			c2.29,2.4,5.01,4.16,8.16,5.29c3.15,1.12,6.64,1.57,10.49,1.32c3.84-0.24,7.49-1.25,10.94-3.01c1.5-0.75,2.74-1.65,3.71-2.7
			c0.97-1.05,1.82-2.39,2.53-4.02c0.71-1.63,1.26-3.74,1.63-6.33c0.37-2.59,0.65-5.58,0.82-8.97c0.17-3.39,0.25-7.58,0.25-12.57
			C93.7,57.98,93.58,51.78,93.3,48.88z M77.9,59.59L76.63,78.2c0,0,6.85,2.93,4.2,9.12c-1.48,3.47-7.24,5.94-10.29,1.99
			c0,0-7.05,3.04-9.42-2.35c-2.39-5.44,1.88-9.26,4.83-9.74l2.26-18.37c0,0-5.61-2.56-4.53-7.93c0.81-4.04,6.39-6.67,10.56-3.54
			c0,0,7.78-3.22,9.31,4.57C84,54.27,83.56,58.59,77.9,59.59z"/>
	</g>
</g>
</svg>
